<?xml version="1.0" encoding="UTF-8"?>
<svg id="_레이어_1" data-name="레이어 1" xmlns="http://www.w3.org/2000/svg" viewBox="0 0 3300 2200">
  <defs>
    <style>
      .cls-1 {
        font-family: Helvetica-Bold, Helvetica;
        font-weight: 700;
      }

      .cls-1, .cls-2 {
        font-size: 13px;
        isolation: isolate;
      }

      .cls-3 {
        letter-spacing: -.017578125em;
      }

      .cls-4 {
        stroke: #00aeef;
      }

      .cls-4, .cls-5, .cls-6 {
        fill: none;
        stroke-width: .5px;
      }

      .cls-5 {
        stroke: #000;
      }

      .cls-6 {
        stroke: #27aae1;
      }

      .cls-7 {
        letter-spacing: -.0737304688em;
      }

      .cls-8 {
        letter-spacing: -.0546875em;
      }

      .cls-9 {
        letter-spacing: -.1108398438em;
      }

      .cls-10, .cls-11, .cls-12 {
        stroke-width: 0px;
      }

      .cls-2 {
        font-family: Helvetica, Helvetica;
      }

      .cls-11 {
        fill: #27aae1;
      }

      .cls-12 {
        fill: #fff;
      }
    </style>
  </defs>
  <g id="Notes">
    <rect id="artboard" class="cls-12" width="3300" height="2200"/>
    <line class="cls-5" x1="263" y1="292" x2="3036" y2="292"/>
    <text class="cls-1" transform="translate(263 322)"><tspan class="cls-3" x="0" y="0">W</tspan><tspan x="12.0415039062" y="0">eight/Scale </tspan><tspan class="cls-8" x="84.2905273438" y="0">V</tspan><tspan x="92.2504882812" y="0">ariations</tspan></text>
    <text class="cls-2" transform="translate(534.063293457 322)"><tspan x="0" y="0">Ultralight</tspan></text>
    <text class="cls-2" transform="translate(843.7774658203 322)"><tspan x="0" y="0">Thin</tspan></text>
    <text class="cls-2" transform="translate(1139.0350341797 322)"><tspan x="0" y="0">Light</tspan></text>
    <text class="cls-2" transform="translate(1427.0772705078 322)"><tspan x="0" y="0">Regular</tspan></text>
    <text class="cls-2" transform="translate(1723.4418945312 322)"><tspan x="0" y="0">Medium</tspan></text>
    <text class="cls-2" transform="translate(2016.171875 322)"><tspan x="0" y="0">Semibold</tspan></text>
    <text class="cls-2" transform="translate(2326.9704589844 322)"><tspan x="0" y="0">Bold</tspan></text>
    <text class="cls-2" transform="translate(2618.2658691406 322)"><tspan x="0" y="0">Heavy</tspan></text>
    <text class="cls-2" transform="translate(2917.5053710938 322)"><tspan x="0" y="0">Black</tspan></text>
    <line class="cls-5" x1="263" y1="1903" x2="3036" y2="1903"/>
    <path class="cls-10" d="M272.2480401464,1933.830078042c4.3066399262,0,7.890619777-3.5742198523,7.890619777-7.88086016,0-4.3066399262-3.5937592088-7.8808602554-7.900399898-7.8808602554-4.2968800231,0-7.8710999708,3.5742203291-7.8710999708,7.8808602554s3.5839802322,7.8808602554,7.8808602554,7.8808602554l.0000198364-.0000000954ZM272.2480401464,1932.3457020662c-3.5449200205,0-6.3769600865-2.8418000645-6.3769600865-6.3964803695,0-3.5546799236,2.8222603265-6.3964798927,6.3671799655-6.3964798927,3.5546799236,0,6.4062409402,2.8417999691,6.4062409402,6.3964798927s-2.8417999691,6.3964802741-6.3964798927,6.3964802741l.0000190735.0000000954ZM268.6542801746,1925.9492216967c0,.4296882693.302733998.7226558793.7519538991.7226558793h2.099600251v2.1191402751c0,.4394538945.2929679914.7421878925.7226562608.7421878925.4492179938,0,.742188274-.302733998.742188274-.7421878925v-2.1191398936h2.1191398936c.4394538945,0,.742188274-.2929679914.742188274-.7226562608,0-.4394538945-.3027343795-.742188274-.742188274-.742188274h-2.1191398936v-2.109380372c0-.4492179938-.2929679914-.7519538991-.742188274-.7519538991-.4296882693,0-.7226562608.3027336166-.7226562608.7519538991v2.1093796091h-2.099600251c-.4492179938,0-.7519538991.3027343795-.7519538991.7421890369Z"/>
    <path class="cls-10" d="M293.2149919347,1935.9101601081c5.4492203571,0,9.9609391743-4.5214802462,9.9609391743-9.9609399372,0-5.4492203571-4.5214798647-9.9609391743-9.9707002218-9.9609391743-5.4394600725,0-9.9511804156,4.5117203431-9.9511804156,9.9609399372,0,5.4394600725,4.5214802462,9.9609399372,9.9609414631,9.9609391743ZM293.2149919347,1934.2500040241c-4.6093796463,0-8.2910203262-3.6914002015-8.2910203262-8.3007800385,0-4.6093796463,3.6718796324-8.3007806108,8.2812402052-8.3007806108s8.3105401324,3.6914002015,8.3105401324,8.3007798478-3.6914002015,8.3007798478-8.3007798478,8.3007798478l.0000198364.0000009537ZM288.6837517854,1925.9492239855c0,.4785163951.3320320179.8007820249.8300781374.8007820249h2.8710998963v2.8808601809c0,.4882820202.3320320179.8300781374.8105461241.8300781374.4882820202,0,.8300781374-.3320320179.8300781374-.8300781374v-2.8808601809h2.8808594179c.4882827832,0,.8300781374-.3222656298.8300781374-.8007820249,0-.4882820202-.3417953542-.8300781374-.8300781374-.8300781374h-2.8808601809v-2.8710998963c0-.4980461195-.3417961172-.8398437625-.8300781374-.8398437625-.4785163951,0-.8105461241.3417961172-.8105461241.8398437625v2.8710998963h-2.8710998963c-.4980461195,0-.8300781374.3417961172-.8300773744.8300781374Z"/>
    <path class="cls-10" d="M319.8947115268,1938.6640599141c6.962899884,0,12.7246004093-5.7617199803,12.7246004093-12.7148397433,0-6.962899884-5.7714798834-12.7246004093-12.7343812933-12.7246004093-6.953119763,0-12.7050798402,5.7617203617-12.7050798402,12.7246004093,0,6.953119763,5.7617203617,12.7148401248,12.7148393618,12.7148401248l.0000213623-.0000003815ZM319.8947115268,1936.8476540185c-6.0351601546,0-10.8886804296-4.8632801781-10.8886804296-10.8984399512,0-6.0449204392,4.8437599904-10.8984391883,10.8788995457-10.8984391883,6.0449204392,0,10.9082002358,4.853520275,10.9082002358,10.8984399512,0,6.0351601546-4.853520275,10.8984399512-10.8984407142,10.8984399512l.0000213623-.0000007629ZM314.1232316434,1925.9492140673c0,.5175781327.3710937555.8789058816.9179680007.8789058816h3.9453209511v3.9550800913c0,.5371099552.3710937555.9179680007.8886718882.9179680007.537109383,0,.9082046644-.3710939463.9082046644-.9179680007v-3.9550800913h3.9550797098c.537109383,0,.9179687637-.3613277489.9179687637-.8789058816,0-.5468757711-.3710937555-.9179680007-.9179687637-.9179680007h-3.9550797098v-3.9453201882c0-.5468757711-.3710937555-.9277336259-.9082046644-.9277336259-.5175781327,0-.8886718882.3808601436-.8886718882.9277343888v3.9453201882h-3.9453201882c-.5468757711,0-.9179680007.3710937555-.9179687637.9179672378Z"/>
    <text class="cls-1" transform="translate(263 1953)"><tspan x="0" y="0">Design </tspan><tspan class="cls-8" x="46.9536132812" y="0">V</tspan><tspan x="54.9135742188" y="0">ariations</tspan></text>
    <text class="cls-2" transform="translate(263 1971)"><tspan x="0" y="0">Symbols are supported in up to nine weights and three scales.</tspan></text>
    <text class="cls-2" transform="translate(263 1989)"><tspan x="0" y="0">For optimal layout with text and other symbols, vertically align</tspan></text>
    <text class="cls-2" transform="translate(263 2007)"><tspan x="0" y="0">symbols with the adjacent text.</tspan></text>
    <line class="cls-4" x1="776" y1="1919" x2="776" y2="1933"/>
    <path class="cls-10" d="M779.3105400579,1933.1562500023c.5175781327,0,.771484005-.1953124075.9570320272-.7421879879l1.2597660252-3.447259859h5.7617199803l1.2597656438,3.4472599543c.1855468778.5468760095.4394546574.7421879879.9472656391.7421879879.5175781327,0,.8496093877-.3125000047.8496093877-.8007820249,0-.1660156275-.0292968754-.3222660113-.1074218766-.527344044l-4.5800797191-12.1972602754c-.2246101413-.5957046598-.6250000093-.8984375134-1.2500000186-.8984375134-.6054679961,0-1.0156242522.2929687544-1.2304680054.8886718882l-4.5800801006,12.2168001088c-.0781250012.2050780327-.1074218766.361328035-.1074218766.5273439963,0,.4882820202.3125000047.7910160183.8203128937.791007769ZM782.0058602274,1927.4824298036l2.3730400439-6.5722600009h.0488281257l2.3730400439,6.5722603824-4.7949082135-.0000003815Z"/>
    <line class="cls-4" x1="792.8359985352" y1="1919" x2="792.8359985352" y2="1933"/>
    <text class="cls-1" transform="translate(776 1953)"><tspan x="0" y="0">Margins</tspan></text>
    <text class="cls-2" transform="translate(776 1971)"><tspan x="0" y="0">Leading and trailing margins on the left and right side of each symbol</tspan></text>
    <text class="cls-2" transform="translate(776 1989)"><tspan x="0" y="0">can be adjusted by modifying the x-location of the margin guidelines.</tspan></text>
    <text class="cls-2" transform="translate(776 2007)"><tspan x="0" y="0">Modifications are automatically applied proportionally to all</tspan></text>
    <text class="cls-2" transform="translate(776 2025)"><tspan x="0" y="0">scales and weights.</tspan></text>
    <path class="cls-10" d="M1291.8417999691,1934.8652340213l1.6992180124,1.708984019c.8593757757.869139875,1.8457039154.8105461241,2.7734398301-.2148441347l10.6933610602-11.7871007768-.9667953635-.9765617516-10.6152398738,11.6796800446c-.3515621238.4003900588-.6835941417.4980461195-1.1523441486.0292968754l-1.1718761619-1.1621100599c-.468750007-.4589840004-.3613281304-.8007820249.0390625006-1.1621100599l11.4745996278-10.8007800758-.9765625146-.9667961265-11.5918000995,10.8886804296c-.9863281397.9179680007-1.0644539038,1.8945320412-.2050779373,2.7636801178l.0000150681-.0000185013ZM1298.2578202673,1916.6718747567c-.4199218813.4101562561-.4492179938.9863281397-.2148437532,1.3769546714.2343757664.3613281304.6933601483.5957046598,1.337889882.4296875064,1.4648437718-.3417953542,2.9882805316-.400390631,4.414060277.537109383l-.5859375087,1.4550781467c-.3417953542.8300781374-.1660156275,1.4160156461.3710937555,1.9628898913l2.2949203833,2.3144600259c.4882812573.4882820202.8984375134.5078117446,1.4648437718.4101562561l1.0644546667-.1953125029.6640625099.673828135-.0390625006.5566398704c-.0390625006.4980461195.0878906263.8789058816.5761718836,1.3574218952l.7617172355.7421878925c.4785156321.4785160136,1.0937500163.5078121261,1.5625000233.0390625006l2.9101593451-2.9199200112c.468750007-.468750007.4492187567-1.0644539038-.0292968754-1.5429680101l-.7714843865-.7617179984c-.4785156321-.4785156321-.8496093877-.6347656345-1.3281234939-.5957038968l-.5761718836.0488281257-.6445327855-.6347663974.2441406286-1.1230461288c.1269531269-.5664062584-.0292968754-1.0058601529-.6152343842-1.5917961358l-2.1972595542-2.1875000326c-3.339840748-3.3203201789-7.7734399047-3.2421799189-10.6640603701-.3515625052l-.0000068665-.0000106812ZM1299.7519601517,1917.0429685122c2.4316398983-1.7773437765,5.72266015-1.474609397,7.9492211573.7519546621l2.4316406612,2.4121002557c.2343765294.2343757664.2734375041.4199218813.2050781281.7617179984l-.3222656298,1.4843757851,1.5039062724,1.4843757851.9863281397-.0585937509c.2539062538-.0097656251.3320312549.0097656251.5273437579.2050781281l.5761718836.5761718836-2.4414001829,2.4414001829-.5761718836-.5761718836c-.1953125029-.1953125029-.2246093783-.273438267-.2148437532-.5371101459l.068359376-.9765617516-1.4941406473-1.4843757851-1.5234375227.2539062538c-.3222656298.068359376-.468750007.0390625006-.7128906356-.1953125029l-2.0019592583-2.0019600213c-.2539062538-.2343757664-.2832046551-.400389868-.1269531269-.7714836236l.8789062631-2.0898392035c-1.5625000233-1.4550781467-3.5937592088-2.0800796819-5.6250000838-1.484376548-.1562500023.0390625006-.2148437532-.0878906263-.0878906263-.1953125029l-.0000022888.0000167847Z"/>
    <text class="cls-1" transform="translate(1289 1953)"><tspan x="0" y="0">Exporting</tspan></text>
    <text class="cls-2" transform="translate(1289 1971)"><tspan x="0" y="0">Symbols should be outlined when exporting to ensure the</tspan></text>
    <text class="cls-2" transform="translate(1289 1989)"><tspan x="0" y="0">design is preserved when submitting to Xcode.</tspan></text>
    <text id="template-version" class="cls-2" transform="translate(2952.4140625 1933)"><tspan class="cls-9" x="0" y="0">T</tspan><tspan x="6.5" y="0">emplate </tspan><tspan class="cls-7" x="56.3608398438" y="0">v</tspan><tspan x="61.90234375" y="0">.5.0</tspan></text>
    <text class="cls-2" transform="translate(2865.4575195312 1951)"><tspan x="0" y="0">Requires Xcode 15 or greater</tspan></text>
    <text id="descriptive-name" class="cls-2" transform="translate(2838.7465820312 1969)"><tspan x="0" y="0">Generated from circle.lefthalf.filled</tspan></text>
    <text class="cls-2" transform="translate(2901.5693359375 1987)"><tspan class="cls-8" x="0" y="0">T</tspan><tspan x="7.2299804688" y="0">ypeset at 100.0 points</tspan></text>
    <text class="cls-2" transform="translate(263 726)"><tspan x="0" y="0">Small</tspan></text>
    <text class="cls-2" transform="translate(263 1156)"><tspan x="0" y="0">Medium</tspan></text>
    <text class="cls-2" transform="translate(263 1586)"><tspan x="0" y="0">Large</tspan></text>
  </g>
  <g id="Guides">
    <g id="H-reference">
      <path class="cls-11" d="M339.9936540127,696h2.6440958977l25.6903502941-67.1323013306h.7021999359v-3.3266983032h-1.907699585l-27.1289465427,70.4589996338ZM350.6885004044,671.5200996399h35.2929983139l-.75-2.2486000061h-33.7929983139l-.75,2.2486000061ZM394.1195983887,696h2.6441001892l-27.125497818-70.4589996338h-1.2056007385v3.3266983032l25.6869983673,67.1323013306Z"/>
    </g>
    <line id="Baseline-S" class="cls-6" x1="263" y1="696" x2="3036" y2="696"/>
    <line id="Capline-S" class="cls-6" x1="263" y1="625.541015625" x2="3036" y2="625.541015625"/>
    <g id="H-reference-2" data-name="H-reference">
      <path class="cls-11" d="M339.9936540127,1126h2.6440958977l25.6903502941-67.1323013306h.7021999359v-3.3266983032h-1.907699585l-27.1289465427,70.4589996338ZM350.6885004044,1101.5200996399h35.2929983139l-.75-2.2486000061h-33.7929983139l-.75,2.2486000061ZM394.1195983887,1126h2.6441001892l-27.125497818-70.4589996338h-1.2056007385v3.3266983032l25.6869983673,67.1323013306Z"/>
    </g>
    <line id="Baseline-M" class="cls-6" x1="263" y1="1126" x2="3036" y2="1126"/>
    <line id="Capline-M" class="cls-6" x1="263" y1="1055.5400390625" x2="3036" y2="1055.5400390625"/>
    <g id="H-reference-3" data-name="H-reference">
      <path class="cls-11" d="M339.9936540127,1556h2.6440958977l25.6903502941-67.1323013306h.7021999359v-3.3266983032h-1.907699585l-27.1289465427,70.4589996338ZM350.6885004044,1531.5200996399h35.2929983139l-.75-2.2486000061h-33.7929983139l-.75,2.2486000061ZM394.1195983887,1556h2.6441001892l-27.125497818-70.4589996338h-1.2056007385v3.3266983032l25.6869983673,67.1323013306Z"/>
    </g>
    <line id="Baseline-L" class="cls-6" x1="263" y1="1556" x2="3036" y2="1556"/>
    <line id="Capline-L" class="cls-6" x1="263" y1="1485.5400390625" x2="3036" y2="1485.5400390625"/>
    <line id="left-margin-Regular-M" class="cls-4" x1="1391.3199462891" y1="1030.7900390625" x2="1391.3199462891" y2="1150.1199951172"/>
    <line id="right-margin-Regular-M" class="cls-4" x1="1508.3699951172" y1="1030.7900390625" x2="1508.3699951172" y2="1150.1199951172"/>
  </g>
  <g id="Black-L">
    <path class="cls-5" d="M2933.3857421875,1588.7257003784c37.3641967773,0,67.9582061768-30.573110342,67.9582061768-67.9370002747,0-37.3639030457-30.6150054932-67.9367027283-67.9582061768-67.9367027283-37.3651008606,0-67.9370012283,30.5727996826-67.9370012283,67.9367027283,0,37.3638899326,30.5927019119,67.9370002747,67.9370012283,67.9370002747ZM2933.3857421875,1568.5782003403v-95.5789022446c26.4311981201,0,47.768196106,21.337802887,47.7891998291,47.7894020081.0209960938,26.4516096115-21.3379974365,47.7895002365-47.7891998291,47.7895002365Z"/>
  </g>
  <g id="Heavy-L">
    <path class="cls-5" d="M2636.6731185913,1587.7693996429c36.8028030396,0,67.0248031616-30.1914596558,67.0248031616-66.9945011139,0-36.8029975891-30.2519989014-66.9948997498-67.0248031616-66.9948997498-36.8085975647,0-66.9943971634,30.1919021606-66.9943971634,66.9948997498,0,36.8030414581,30.2160005569,66.9945011139,66.9943971634,66.9945011139ZM2636.6731185913,1570.0275001526v-98.5051994324c27.2468032837,0,49.2228012085,21.9753990173,49.2527999878,49.2525978088.0300064087,27.2772016525-21.9759979248,49.2526016235-49.2527999878,49.2526016235Z"/>
  </g>
  <g id="Bold-L">
    <path class="cls-5" d="M2339.9602890015,1586.571100235c36.1116027832,0,65.8496017456-29.7002282143,65.8496017456-65.8116016388,0-36.1113967896-29.7760009766-65.8115005493-65.8496017456-65.8115005493-36.1245956421,0-65.8115968704,29.7001037598-65.8115968704,65.8115005493,0,36.1113734245,29.7249994278,65.8116016388,65.8115968704,65.8116016388ZM2339.9602890015,1571.8254995346v-102.1320028305c28.2536010742,0,51.0276107788,22.7743034363,51.0656051636,51.0660018921.0379943848,28.291721344-22.7740020752,51.0660009384-51.0656051636,51.0660009384Z"/>
  </g>
  <g id="Semibold-L">
    <path class="cls-5" d="M2043.2448883057,1585.7450008392c35.6341018677,0,65.0391082764-29.3615788519,65.0391082764-64.996099472,0-35.6345977783-29.4480056763-64.9959030151-65.0391082764-64.9959030151-35.6529998779,0-64.9960985184,29.3613052368-64.9960985184,64.9959030151,0,35.6345206201,29.3865022659,64.996099472,64.9960985184,64.996099472ZM2043.2448883057,1573.0650005341v-104.6322002411c28.9481048584,0,52.2731018066,23.3248977661,52.3161010742,52.3161010742.0429992676,28.9910984039-23.3249969482,52.3160991669-52.3161010742,52.3160991669Z"/>
  </g>
  <g id="Medium-L">
    <path class="cls-5" d="M1746.5366210938,1585.1187000275c35.2734069824,0,64.4253997803-29.1048833271,64.4253997803-64.3779010773,0-35.2730026245-29.1999969482-64.3777999878-64.4253997803-64.3777999878-35.2953948975,0-64.3777971268,29.1047973633-64.3777971268,64.3777999878,0,35.2730177501,29.1297998428,64.3779010773,64.3777971268,64.3779010773ZM1746.5366210938,1574.0048007965v-106.5280017853c29.4744033813,0,53.2164001465,23.7425994873,53.2644042969,53.263999939.0469970703,29.52146101-23.7430038452,53.2640018463-53.2644042969,53.2640018463Z"/>
  </g>
  <g id="Regular-L">
    <path id="_컴파운드_패스_" data-name="&amp;lt;컴파운드 패스&amp;gt;" class="cls-5" d="M1449.8156990737,1457.1027102738c-35.1668971455,0-63.6275887221,28.4606915767-63.6275887221,63.6275887221s28.4606915767,63.6275887222,63.6275887221,63.6275887222,63.6275887221-28.4606915767,63.6275887221-63.6275887222c.1635270301-35.0033701154-28.4606915767-63.6275887221-63.6275887221-63.6275887221ZM1395.3478203724,1520.8938260261c0-30.0963612113,24.37151749-54.467778868,54.4678787013-54.467778868v25.5164063676c16.0296422865,0,28.951272667,12.9218300473,28.951272667,28.9513725004s-12.9218300473,28.9513725004-28.951272667,28.9513725004v25.5164063676c-30.0963612113,0-54.4678787013-24.3714176566-54.4678787013-54.467778868ZM1449.8156990737,1491.9424535257v57.9027450008c-16.0296422865,0-28.951272667-12.9218300473-28.951272667-28.9513725004-.0001996667-16.0295424531,13.0851574107-28.9513725004,28.951272667-28.9513725004Z"/>
  </g>
  <g id="Light-L">
    <path class="cls-5" d="M1153.1140518188,1583.3855991364c34.3429031372,0,62.6888961792-28.311922133,62.6888961792-62.655298233,0-34.3433990479-28.3789978027-62.6553039551-62.6888961792-62.6553039551-34.3902015686,0-62.6553010941,28.3119049072-62.6553010941,62.6553039551,0,34.3433761001,28.2987985611,62.655298233,62.6553010941,62.655298233ZM1153.1140518188,1576.4902992249v-111.5200004578c30.8278961182,0,55.7258987427,24.8979034424,55.7598953247,55.7600021362.033996582,30.8620791435-24.8979949951,55.7599983215-55.7598953247,55.7599983215Z"/>
  </g>
  <g id="Thin-L">
    <path class="cls-5" d="M856.4184036255,1582.1739997864c33.7376022339,0,61.4525985718-27.7061297894,61.4525985718-61.4436988831,0-33.7376022339-27.7229995728-61.4437026978-61.4525985718-61.4437026978-33.8095016479,0-61.4436006546,27.7061004639-61.4436006546,61.4437026978,0,33.7375690937,27.64249897,61.4436988831,61.4436006546,61.4436988831ZM856.4184036255,1578.1562995911v-114.8520011902c31.7116012573,0,57.4175949097,25.7057037354,57.4256057739,57.4260025024.0089874268,31.7202990055-25.7050094604,57.4259986877-57.4256057739,57.4259986877Z"/>
  </g>
  <g id="Ultralight-L">
    <path class="cls-5" d="M559.7129135132,1581.5534000397c33.4271011353,0,60.8180923462-27.3958200216,60.8180923462-60.8230991364,0-33.4272994995-27.3859939575-60.823097229-60.8180923462-60.823097229-33.5122032166,0-60.8231019974,27.3957977295-60.8231019974,60.823097229,0,33.4272791147,27.3064012527,60.8230991364,60.8231019974,60.8230991364ZM559.7129135132,1579.0095996857v-116.5586032867c32.164100647,0,58.2840957642,26.1194000244,58.2790908813,58.2793045044-.0039978027,32.159869194-26.1189956665,58.2792987823-58.2790908813,58.2792987823Z"/>
  </g>
  <g id="Black-M">
    <path class="cls-5" d="M2933.402305603,1144.1159992218c29.367401123,0,53.324798584-23.9522089958,53.324798584-53.3194980621,0-29.367401123-23.9628982544-53.3196029663-53.324798584-53.3196029663-29.3669967651,0-53.3195381165,23.9522018433-53.3195381165,53.3196029663,0,29.3672890663,23.9580383301,53.3194980621,53.3195381165,53.3194980621ZM2933.402305603,1126.7341499925v-71.8753471971c19.866104126,0,35.9322052002,16.0660972595,35.9376983643,35.9376983643.0055007935,19.8714990616-16.0660934448,35.9376488328-35.9376983643,35.9376488328Z"/>
  </g>
  <g id="Heavy-M">
    <path class="cls-5" d="M2636.6852798462,1143.2656993866c28.8614044189,0,52.4987030029-23.6214094162,52.4987030029-52.4826984406,0-28.8613014221-23.6538009644-52.4827003479-52.4987030029-52.4827003479-28.8634986877,0-52.4826393127,23.6213989258-52.4826393127,52.4827003479,0,28.8612890244,23.6355400085,52.4826984406,52.4826393127,52.4826984406ZM2636.6852798462,1128.0347800255v-74.5035834312c20.6024017334,0,37.2353973389,16.6330032349,37.2518005371,37.2518043518.0165023804,20.6186990738-16.6330032349,37.2517790794-37.2518005371,37.2517790794Z"/>
  </g>
  <g id="Bold-M">
    <path class="cls-5" d="M2339.9591407776,1142.3143997192c28.2952003479,0,51.5748023987-23.2512598038,51.5748023987-51.5465011597,0-28.2952003479-23.3082046509-51.5465011597-51.5748023987-51.5465011597-28.3003997803,0-51.5465393066,23.2513008118-51.5465393066,51.5465011597,0,28.2952413559,23.2747402191,51.5465011597,51.5465393066,51.5465011597ZM2339.9591407776,1129.4897201061v-77.4436233044c21.4258995056,0,38.6932029724,17.2672042847,38.7217979431,38.7218017578.0286026001,21.4546012878-17.2671966553,38.7218215466-38.7217979431,38.7218215466Z"/>
  </g>
  <g id="Semibold-M">
    <path class="cls-5" d="M2043.2437934875,1141.6585998535c27.905002594,0,50.9381980896-22.9960899353,50.9381980896-50.9011001587,0-27.9049987793-23.0702972412-50.9011001587-50.9381980896-50.9011001587-27.9120979309,0-50.9011383057,22.9961013794-50.9011383057,50.9011001587,0,27.9050102234,23.0260391235,50.9011001587,50.9011383057,50.9011001587ZM2043.2437934875,1130.4927501678v-79.4704494476c21.9937019348,0,39.6982002258,17.7043991089,39.7352027893,39.7351989746s-17.7043991089,39.735250473-39.7352027893,39.735250473Z"/>
  </g>
  <g id="Medium-M">
    <path class="cls-5" d="M1746.5344238281,1141.1613998413c27.6091003418,0,50.4555969238-22.802670002,50.4555969238-50.4118003845,0-27.6091003418-22.8898925781-50.4117012024-50.4555969238-50.4117012024-27.6176986694,0-50.4117393494,22.8026008606-50.4117393494,50.4117012024,0,27.6091303825,22.8374404907,50.4118003845,50.4117393494,50.4118003845ZM1746.5344238281,1131.2532901764v-81.0072879791c22.4243011475,0,40.4601974487,18.0358963013,40.5037002563,40.5035972595.0434036255,22.4678001404-18.0360031128,40.5036907196-40.5037002563,40.5036907196Z"/>
  </g>
  <g id="Regular-M">
    <path id="Regular-M-2" data-name="Regular-M" class="cls-5" d="M1449.8157751516,1040.7136133109c-27.4920182533,0-49.7414037789,22.2493855256-49.7414037789,49.7414037789s22.2493855256,49.7414037789,49.7414037789,49.7414037789,49.7414037789-22.2493855256,49.7414037789-49.7414037789c.1278386341-27.3641796192-22.2493855256-49.7414037789-49.7414037789-49.7414037789ZM1407.2350518855,1090.582855724c0-23.528084049,19.052639217-42.5806452205,42.580723266-42.5806452205v19.947665747c12.5313079659,0,22.6329014279,10.1017495532,22.6329014279,22.6329794735s-10.1017495532,22.6329794735-22.6329014279,22.6329794735v19.947665747c-23.528084049,0-42.580723266-19.0525611715-42.580723266-42.5806452205ZM1449.8157751516,1067.9498762505v45.265958947c-12.5313079659,0-22.6329014279-10.1017495532-22.6329014279-22.6329794735-.0001560911-12.5312299203,10.2294320962-22.6329794735,22.6329014279-22.6329794735Z"/>
  </g>
  <g id="Light-M">
    <path class="cls-5" d="M1153.1147422791,1139.6914997101c26.8123970032,0,48.9872016907-22.1396598816,48.9872016907-48.9521007538,0-26.8125-22.2094039917-48.9521980286-48.9872016907-48.9521980286-26.8402004242,0-48.9521408081,22.1396980286-48.9521408081,48.9521980286,0,26.8124408722,22.1466407776,48.9521007538,48.9521408081,48.9521007538ZM1153.1147422791,1133.3746199608v-85.2705168724c23.5846977234,0,42.6002006531,19.0157966614,42.6351966858,42.6352958679.0350036621,23.6194009781-19.0158004761,42.6352210045-42.6351966858,42.6352210045Z"/>
  </g>
  <g id="Thin-M">
    <path class="cls-5" d="M856.4165039062,1138.6051998138c26.2693023682,0,47.8775024414-21.5964994431,47.8775024414-47.8658008575,0-26.2693977356-21.6202011108-47.865901947-47.8775024414-47.865901947-26.319601059,0-47.8658409119,21.5965042114-47.8658409119,47.865901947,0,26.2693014145,21.5582389832,47.8658008575,47.8658409119,47.8658008575ZM856.4165039062,1134.8682403564v-88.2577438354c24.3768005371,0,44.1165008545,19.7400016785,44.1285018921,44.1289024353.0119934082,24.388800621-19.7397003174,44.1288414001-44.1285018921,44.1288414001Z"/>
  </g>
  <g id="Ultralight-M">
    <path class="cls-5" d="M559.7110862732,1138.0488004684c25.9911994934,0,47.3099021912-21.3182907104,47.3099021912-47.3094015121,0-25.9911994934-21.3192062378-47.3094978333-47.3099021912-47.3094978333-26.0530014038,0-47.3094406128,21.3182983398-47.3094406128,47.3094978333,0,25.9911108017,21.2568397522,47.3094015121,47.3094406128,47.3094015121ZM559.7110862732,1135.6332597733v-89.7877626419c24.7825965881,0,44.893901825,20.1109046936,44.893901825,44.893901825,0,24.7829008102-20.1109008789,44.893860817-44.893901825,44.893860817Z"/>
  </g>
  <g id="Black-S">
    <path class="cls-5" d="M2933.3981666565,702.7871098518c23.1446037292,0,41.9921989441-18.8476099968,41.9921989441-41.992210865,0-23.1445007324-18.8475952148-41.9922027588-41.9921989441-41.9922027588-23.1444988251,0-41.9921584129,18.8477020264-41.9921584129,41.9922027588,0,23.1446008682,18.8476595879,41.992210865,41.9921584129,41.992210865ZM2933.3981666565,688.6269497871v-55.6640515327c15.3809013367,0,27.8321037292,12.4512023926,27.8321037292,27.8320007324,0,15.3809013367-12.4512023926,27.8320508003-27.8321037292,27.8320508003Z"/>
  </g>
  <g id="Heavy-S">
    <path class="cls-5" d="M2636.6872711182,702.1647901535c22.7642974854,0,41.3928985596-18.617190361,41.3928985596-41.3813886642,0-22.7642021179-18.6401977539-41.381401062-41.3928985596-41.381401062-22.7642002106,0-41.3813605309,18.6171989441-41.3813605309,41.381401062,0,22.7641983032,18.6286597252,41.3813886642,41.3813605309,41.3813886642ZM2636.6872711182,689.5950098038v-57.623208046c15.93409729,0,28.8001022339,12.8659973145,28.8115997314,28.8115997314.0115966797,15.9455986023-12.8659973145,28.8116083145-28.8115997314,28.8116083145Z"/>
  </g>
  <g id="Bold-S">
    <path class="cls-5" d="M2339.9641304016,701.46875c22.3388023376,0,40.7225990295-18.3593502045,40.7225990295-40.6982498169,0-22.3389015198-18.4081954956-40.6981964111-40.7225990295-40.6981964111-22.3388996124,0-40.6982588768,18.3592948914-40.6982588768,40.6981964111,0,22.3388996124,18.3837599754,40.6982498169,40.6982588768,40.6982498169ZM2339.9641304016,690.6777300835v-59.8144335747c16.5527000427,0,29.8828010559,13.3301048279,29.9071998596,29.9072036743.0243988037,16.5771999359-13.3301010132,29.9072299004-29.9071998596,29.9072299004Z"/>
  </g>
  <g id="Semibold-S">
    <path class="cls-5" d="M2043.2531433105,700.9888701439c22.0456008911,0,40.2604980469-18.1816697121,40.2604980469-40.2272696495,0-22.0456008911-18.2481994629-40.2271995544-40.2604980469-40.2271995544-22.0456027985,0-40.2272620201,18.1815986633-40.2272620201,40.2271995544,0,22.0455999374,18.2149596214,40.2272696495,40.2272620201,40.2272696495ZM2043.2531433105,691.4242200851v-61.3252210617c16.9793014526,0,30.6292953491,13.6500015259,30.6625976562,30.6626014709s-13.6500015259,30.6626195908-30.6625976562,30.6626195908Z"/>
  </g>
  <g id="Medium-S">
    <path class="cls-5" d="M1746.5360565186,700.625c21.8231964111,0,39.9101028442-18.0468997955,39.9101028442-39.870098114,0-21.8233032227-18.1268997192-39.870098114-39.9101028442-39.870098114-21.8233013153,0-39.8701605797,18.0467948914-39.8701605797,39.870098114,0,21.8231983185,18.086959362,39.870098114,39.8701605797,39.870098114ZM1746.5360565186,691.9902300835v-62.470729351c17.302696228,0,31.1952972412,13.8926010132,31.2352981567,31.2354011536.0400009155,17.342798233-13.8926010132,31.2353281975-31.2352981567,31.2353281975Z"/>
  </g>
  <g id="Regular-S">
    <path id="_컴파운드_패스_-2" data-name="&amp;lt;컴파운드 패스&amp;gt;" class="cls-5" d="M1449.815831496,621.1611827847c-21.8078893804,0-39.4570897357,17.6492003553-39.4570897357,39.4570897357s17.6492003553,39.4570897357,39.4570897357,39.4570897357,39.4570897357-17.6492003553,39.4570897357-39.4570897357c.1014072799-21.7064821005-17.6492003553-39.4570897357-39.4570897357-39.4570897357ZM1416.0389114398,660.7196798004c0-18.6635207916,15.1133992645-33.7768581469,33.7769200561-33.7768581469v15.8233740426c9.9403898031,0,17.9534221951,8.0131562104,17.9534221951,17.9534841043s-8.0131562104,17.9534841043-17.9534221951,17.9534841043v15.8233740426c-18.6635207916,0-33.7769200561-15.1133373553-33.7769200561-33.7768581469ZM1449.815831496,642.7661956961v35.9069682087c-9.9403898031,0-17.9534221951-8.0131562104-17.9534221951-17.9534841043-.0001238184-9.9403278939,8.114439672-17.9534841043,17.9534221951-17.9534841043Z"/>
  </g>
  <g id="Light-S">
    <path class="cls-5" d="M1153.1136741638,699.4238300323c21.1699028015,0,38.7113990784-17.5078296661,38.7113990784-38.677728653,0-21.1699028015-17.5751953125-38.6777038574-38.7113990784-38.6777038574-21.1850986481,0-38.6777586937,17.5078010559-38.6777586937,38.6777038574,0,21.1698989868,17.5263609886,38.677728653,38.6777586937,38.677728653ZM1153.1136741638,693.7275300026v-65.9628281593c18.2544021606,0,32.9477043152,14.6932983398,32.9814033508,32.9813995361.0336990356,18.2880992889-14.6933021545,32.9814286232-32.9814033508,32.9814286232Z"/>
  </g>
  <g id="Thin-S">
    <path class="cls-5" d="M856.4156761169,698.4628999233c20.6895027161,0,37.7305030823-17.0272996426,37.7305030823-37.7167985439,0-20.6895027161-17.0547027588-37.7168045044-37.7305030823-37.7168045044-20.7245998383,0-37.7167601585,17.0273017883-37.7167601585,37.7168045044,0,20.6894989014,17.0058608055,37.7167985439,37.7167601585,37.7167985439ZM856.4156761169,695.0488100052v-68.6054124832c18.9551010132,0,34.2890968323,15.3340034485,34.3027992249,34.3027038574.0136032104,18.9686985016-15.3339996338,34.3027086258-34.3027992249,34.3027086258Z"/>
  </g>
  <g id="Ultralight-S">
    <path class="cls-5" d="M559.7095870972,697.9707200527c20.4432983398,0,37.2279968262-16.7812201977,37.2279968262-37.2246186733,0-20.4434013367-16.7880935669-37.2246017456-37.2279968262-37.2246017456-20.4888000488,0-37.2246603966,16.7812004089-37.2246603966,37.2246017456,0,20.4433984756,16.739259243,37.2246186733,37.2246603966,37.2246186733ZM559.7095870972,695.7255620062v-69.9589604437c19.3138999939,0,34.9759979248,15.6620979309,34.9794006348,34.9794998169.0035018921,19.317399025-15.6621017456,34.9794606268-34.9794006348,34.9794606268Z"/>
  </g>
</svg>